<svg width="139" height="72" viewBox="0 0 139 72" fill="none" xmlns="http://www.w3.org/2000/svg">
<path d="M11.0548 60.352C11.0548 61.4933 10.8255 62.4907 10.3668 63.344C9.90815 64.1867 9.23081 64.8427 8.33481 65.312C7.44948 65.7707 6.38281 66 5.13481 66H1.55081V54.72H5.13481C6.38281 54.72 7.44948 54.9493 8.33481 55.408C9.23081 55.856 9.90815 56.5067 10.3668 57.36C10.8255 58.2027 11.0548 59.2 11.0548 60.352ZM5.02281 64.688C6.49481 64.688 7.62015 64.3093 8.39881 63.552C9.17748 62.7947 9.56681 61.728 9.56681 60.352C9.56681 58.976 9.17748 57.9093 8.39881 57.152C7.63081 56.384 6.50548 56 5.02281 56H3.00681V64.688H5.02281ZM16.6196 57.104C17.4729 57.104 18.1929 57.3173 18.7796 57.744C19.3769 58.1707 19.7929 58.7413 20.0276 59.456V57.216H21.4836V66H20.0276V63.76C19.7929 64.4747 19.3769 65.0453 18.7796 65.472C18.1929 65.8987 17.4729 66.112 16.6196 66.112C15.8409 66.112 15.1476 65.9307 14.5396 65.568C13.9316 65.2053 13.4516 64.688 13.0996 64.016C12.7582 63.3333 12.5876 62.5333 12.5876 61.616C12.5876 60.6987 12.7582 59.8987 13.0996 59.216C13.4516 58.5333 13.9316 58.0107 14.5396 57.648C15.1476 57.2853 15.8409 57.104 16.6196 57.104ZM17.0356 58.4C16.1396 58.4 15.4196 58.688 14.8756 59.264C14.3422 59.8293 14.0756 60.6133 14.0756 61.616C14.0756 62.6187 14.3422 63.408 14.8756 63.984C15.4196 64.5493 16.1396 64.832 17.0356 64.832C17.6116 64.832 18.1236 64.6987 18.5716 64.432C19.0302 64.1653 19.3876 63.792 19.6436 63.312C19.8996 62.8213 20.0276 62.256 20.0276 61.616C20.0276 60.976 19.8996 60.4107 19.6436 59.92C19.3876 59.4293 19.0302 59.056 18.5716 58.8C18.1236 58.5333 17.6116 58.4 17.0356 58.4ZM28.4248 57.072C29.4488 57.072 30.2755 57.4027 30.9048 58.064C31.5341 58.7147 31.8488 59.6587 31.8488 60.896V66H30.3928V61.024C30.3928 60.1493 30.1688 59.4773 29.7208 59.008C29.2728 58.5387 28.6648 58.304 27.8968 58.304C27.0968 58.304 26.4568 58.5653 25.9768 59.088C25.4968 59.6 25.2568 60.352 25.2568 61.344V66H23.8008V57.216H25.2568V59.296C25.4808 58.5813 25.8755 58.032 26.4408 57.648C27.0168 57.264 27.6781 57.072 28.4248 57.072ZM38.2741 64.72V66H37.1861C36.2901 66 35.6181 65.7867 35.1701 65.36C34.7327 64.9333 34.5141 64.2187 34.5141 63.216V58.48H33.2021V57.216H34.5141V55.024H35.9861V57.216H38.2581V58.48H35.9861V63.248C35.9861 63.8133 36.0874 64.2027 36.2901 64.416C36.5034 64.6187 36.8661 64.72 37.3781 64.72H38.2741ZM48.1308 61.12C48.1308 61.4293 48.1095 61.696 48.0668 61.92H41.0428C41.0748 62.9227 41.3575 63.6747 41.8908 64.176C42.4348 64.6773 43.0961 64.928 43.8748 64.928C44.5788 64.928 45.1655 64.752 45.6348 64.4C46.1148 64.0373 46.4081 63.5573 46.5148 62.96H48.0668C47.9601 63.568 47.7201 64.112 47.3468 64.592C46.9841 65.072 46.5095 65.4453 45.9228 65.712C45.3361 65.9787 44.6748 66.112 43.9388 66.112C43.0961 66.112 42.3495 65.9307 41.6988 65.568C41.0481 65.2053 40.5361 64.688 40.1628 64.016C39.8001 63.3333 39.6188 62.5333 39.6188 61.616C39.6188 60.6987 39.8001 59.8987 40.1628 59.216C40.5361 58.5333 41.0481 58.0107 41.6988 57.648C42.3495 57.2853 43.0961 57.104 43.9388 57.104C44.7921 57.104 45.5335 57.2853 46.1628 57.648C46.8028 58.0107 47.2881 58.496 47.6188 59.104C47.9601 59.712 48.1308 60.384 48.1308 61.12ZM46.6588 61.216C46.6908 60.5653 46.5841 60.0213 46.3388 59.584C46.0935 59.1467 45.7575 58.8213 45.3308 58.608C44.9041 58.3947 44.4401 58.288 43.9388 58.288C43.1388 58.288 42.4668 58.5387 41.9228 59.04C41.3788 59.5307 41.0855 60.256 41.0428 61.216H46.6588ZM58.9803 54.608C60.3563 54.608 61.4923 54.9493 62.3883 55.632C63.2843 56.304 63.903 57.2267 64.2443 58.4H62.7083C62.4203 57.6533 61.9563 57.0613 61.3163 56.624C60.6763 56.176 59.8923 55.952 58.9643 55.952C58.2283 55.952 57.567 56.1333 56.9803 56.496C56.4043 56.848 55.9456 57.36 55.6043 58.032C55.2736 58.6933 55.1083 59.472 55.1083 60.368C55.1083 61.2533 55.2736 62.0267 55.6043 62.688C55.9456 63.3493 56.4043 63.8613 56.9803 64.224C57.567 64.576 58.2283 64.752 58.9643 64.752C59.8923 64.752 60.6763 64.5333 61.3163 64.096C61.9563 63.648 62.4203 63.0507 62.7083 62.304H64.2443C63.903 63.4773 63.2843 64.4053 62.3883 65.088C61.4923 65.76 60.3563 66.096 58.9803 66.096C57.9243 66.096 56.991 65.856 56.1803 65.376C55.3696 64.8853 54.735 64.208 54.2763 63.344C53.8283 62.4693 53.6043 61.4773 53.6043 60.368C53.6043 59.248 53.8283 58.2507 54.2763 57.376C54.735 56.5013 55.3696 55.824 56.1803 55.344C56.991 54.8533 57.9243 54.608 58.9803 54.608ZM70.1754 57.104C71.0181 57.104 71.7701 57.2853 72.4314 57.648C73.1034 58.0107 73.6261 58.5333 73.9994 59.216C74.3834 59.8987 74.5754 60.6987 74.5754 61.616C74.5754 62.5333 74.3834 63.3333 73.9994 64.016C73.6261 64.688 73.1034 65.2053 72.4314 65.568C71.7701 65.9307 71.0181 66.112 70.1754 66.112C69.3328 66.112 68.5754 65.9307 67.9034 65.568C67.2421 65.2053 66.7194 64.688 66.3354 64.016C65.9514 63.3333 65.7594 62.5333 65.7594 61.616C65.7594 60.6987 65.9514 59.8987 66.3354 59.216C66.7194 58.5333 67.2421 58.0107 67.9034 57.648C68.5754 57.2853 69.3328 57.104 70.1754 57.104ZM70.1754 58.384C69.6528 58.384 69.1674 58.5013 68.7194 58.736C68.2821 58.9707 67.9248 59.3333 67.6474 59.824C67.3808 60.304 67.2474 60.9013 67.2474 61.616C67.2474 62.32 67.3808 62.9173 67.6474 63.408C67.9248 63.888 68.2821 64.2453 68.7194 64.48C69.1674 64.7147 69.6528 64.832 70.1754 64.832C70.6981 64.832 71.1781 64.7147 71.6154 64.48C72.0634 64.2453 72.4208 63.888 72.6874 63.408C72.9648 62.9173 73.1034 62.32 73.1034 61.616C73.1034 60.9013 72.9648 60.304 72.6874 59.824C72.4208 59.3333 72.0634 58.9707 71.6154 58.736C71.1781 58.5013 70.6981 58.384 70.1754 58.384ZM81.0967 57.072C82.1207 57.072 82.9474 57.4027 83.5767 58.064C84.206 58.7147 84.5207 59.6587 84.5207 60.896V66H83.0647V61.024C83.0647 60.1493 82.8407 59.4773 82.3927 59.008C81.9447 58.5387 81.3367 58.304 80.5687 58.304C79.7687 58.304 79.1287 58.5653 78.6487 59.088C78.1687 59.6 77.9287 60.352 77.9287 61.344V66H76.4727V57.216H77.9287V59.296C78.1527 58.5813 78.5474 58.032 79.1127 57.648C79.6887 57.264 80.35 57.072 81.0967 57.072ZM89.5059 57.104C90.4979 57.104 91.2926 57.3653 91.8899 57.888C92.4979 58.4 92.8659 59.0933 92.9939 59.968H91.6019C91.5379 59.4453 91.3193 59.0187 90.9459 58.688C90.5833 58.3467 90.0926 58.176 89.4739 58.176C88.9513 58.176 88.5406 58.304 88.2419 58.56C87.9539 58.8053 87.8099 59.1413 87.8099 59.568C87.8099 59.888 87.9059 60.1493 88.0979 60.352C88.3006 60.544 88.5459 60.6933 88.8339 60.8C89.1326 60.896 89.5379 61.0027 90.0499 61.12C90.7006 61.2693 91.2233 61.424 91.6179 61.584C92.0233 61.7333 92.3646 61.9787 92.6419 62.32C92.9299 62.6613 93.0739 63.12 93.0739 63.696C93.0739 64.4107 92.8019 64.992 92.2579 65.44C91.7246 65.888 91.0099 66.112 90.1139 66.112C89.0686 66.112 88.2153 65.8613 87.5539 65.36C86.8926 64.8587 86.5033 64.16 86.3859 63.264H87.7939C87.8473 63.7973 88.0766 64.2293 88.4819 64.56C88.8979 64.8907 89.4419 65.056 90.1139 65.056C90.6153 65.056 91.0046 64.928 91.2819 64.672C91.5699 64.416 91.7139 64.08 91.7139 63.664C91.7139 63.3227 91.6126 63.0507 91.4099 62.848C91.2073 62.6453 90.9566 62.4907 90.6579 62.384C90.3593 62.2773 89.9486 62.1653 89.4259 62.048C88.7753 61.8987 88.2526 61.7493 87.8579 61.6C87.4739 61.4507 87.1433 61.216 86.8659 60.896C86.5993 60.5653 86.4659 60.1227 86.4659 59.568C86.4659 58.832 86.7379 58.24 87.2819 57.792C87.8259 57.3333 88.5673 57.104 89.5059 57.104ZM102.828 57.216V66H101.372V63.936C101.148 64.6507 100.748 65.2 100.172 65.584C99.6062 65.9573 98.9449 66.144 98.1876 66.144C97.1742 66.144 96.3529 65.8187 95.7236 65.168C95.0942 64.5067 94.7796 63.5627 94.7796 62.336V57.216H96.2356V62.192C96.2356 63.0667 96.4596 63.744 96.9076 64.224C97.3556 64.6933 97.9636 64.928 98.7316 64.928C99.5316 64.928 100.172 64.672 100.652 64.16C101.132 63.6373 101.372 62.88 101.372 61.888V57.216H102.828ZM106.616 54.16V66H105.16V54.16H106.616ZM113.149 64.72V66H112.061C111.165 66 110.493 65.7867 110.045 65.36C109.608 64.9333 109.389 64.2187 109.389 63.216V58.48H108.077V57.216H109.389V55.024H110.861V57.216H113.133V58.48H110.861V63.248C110.861 63.8133 110.962 64.2027 111.165 64.416C111.378 64.6187 111.741 64.72 112.253 64.72H113.149ZM114.67 54.64C114.67 54.3733 114.76 54.16 114.942 54C115.123 53.8293 115.363 53.744 115.662 53.744C115.96 53.744 116.2 53.8293 116.382 54C116.563 54.16 116.654 54.3733 116.654 54.64C116.654 54.9067 116.563 55.1253 116.382 55.296C116.2 55.456 115.96 55.536 115.662 55.536C115.363 55.536 115.123 55.456 114.942 55.296C114.76 55.1253 114.67 54.9067 114.67 54.64ZM116.382 57.216V66H114.926V57.216H116.382ZM123.347 57.072C124.371 57.072 125.197 57.4027 125.827 58.064C126.456 58.7147 126.771 59.6587 126.771 60.896V66H125.315V61.024C125.315 60.1493 125.091 59.4773 124.643 59.008C124.195 58.5387 123.587 58.304 122.819 58.304C122.019 58.304 121.379 58.5653 120.899 59.088C120.419 59.6 120.179 60.352 120.179 61.344V66H118.723V57.216H120.179V59.296C120.403 58.5813 120.797 58.032 121.363 57.648C121.939 57.264 122.6 57.072 123.347 57.072ZM132.604 57.104C133.457 57.104 134.177 57.3173 134.764 57.744C135.361 58.1707 135.777 58.7413 136.012 59.456V57.216H137.468V66.144C137.468 66.9547 137.297 67.6747 136.956 68.304C136.615 68.9333 136.135 69.424 135.516 69.776C134.897 70.128 134.177 70.304 133.356 70.304C132.172 70.304 131.207 70.016 130.46 69.44C129.713 68.8747 129.239 68.1067 129.036 67.136H130.476C130.647 67.7227 130.967 68.1813 131.436 68.512C131.916 68.8533 132.529 69.024 133.276 69.024C134.065 69.024 134.716 68.768 135.228 68.256C135.751 67.7547 136.012 67.0507 136.012 66.144V63.76C135.777 64.4747 135.361 65.0453 134.764 65.472C134.177 65.8987 133.457 66.112 132.604 66.112C131.825 66.112 131.132 65.9307 130.524 65.568C129.916 65.2053 129.436 64.688 129.084 64.016C128.743 63.3333 128.572 62.5333 128.572 61.616C128.572 60.6987 128.743 59.8987 129.084 59.216C129.436 58.5333 129.916 58.0107 130.524 57.648C131.132 57.2853 131.825 57.104 132.604 57.104ZM133.02 58.4C132.124 58.4 131.404 58.688 130.86 59.264C130.327 59.8293 130.06 60.6133 130.06 61.616C130.06 62.6187 130.327 63.408 130.86 63.984C131.404 64.5493 132.124 64.832 133.02 64.832C133.596 64.832 134.108 64.6987 134.556 64.432C135.015 64.1653 135.372 63.792 135.628 63.312C135.884 62.8213 136.012 62.256 136.012 61.616C136.012 60.976 135.884 60.4107 135.628 59.92C135.372 59.4293 135.015 59.056 134.556 58.8C134.108 58.5333 133.596 58.4 133.02 58.4Z" fill="#163E75"/>
<path d="M87 9L74 22L80.5 28.5L87 35L100 22L87 9Z" stroke="#163E75" stroke-width="4"/>
<path d="M51 9L38 22L51 35L64 22L51 9Z" stroke="#163E75" stroke-width="4"/>
<path d="M69 4L51 22L69 40L87 22L69 4Z" stroke="#F3BB44" stroke-width="5"/>
<path d="M55 13L60 18" stroke="#163E75" stroke-width="4"/>
<path d="M78 26L83 31" stroke="#163E75" stroke-width="4"/>
</svg>
