<svg width="35" height="36" viewBox="0 0 35 36" fill="none" xmlns="http://www.w3.org/2000/svg">
<path d="M32.0836 24.9462V29.3212C32.0852 29.7274 32.002 30.1294 31.8393 30.5015C31.6766 30.8736 31.438 31.2077 31.1387 31.4823C30.8394 31.7568 30.4861 31.9659 30.1013 32.096C29.7166 32.2261 29.3089 32.2744 28.9044 32.2379C24.4169 31.7503 20.1063 30.2168 16.319 27.7608C12.7954 25.5218 9.80803 22.5344 7.569 19.0108C5.10438 15.2063 3.5706 10.8748 3.09191 6.36705C3.05547 5.96377 3.1034 5.55733 3.23264 5.17359C3.36189 4.78985 3.56962 4.43722 3.84262 4.13817C4.11561 3.83911 4.44788 3.60017 4.81828 3.43656C5.18867 3.27296 5.58908 3.18827 5.994 3.18789H10.369C11.0767 3.18092 11.7629 3.43154 12.2995 3.89304C12.8361 4.35453 13.1866 4.99541 13.2857 5.69622C13.4703 7.09632 13.8128 8.47103 14.3065 9.79414C14.5027 10.3161 14.5452 10.8834 14.4289 11.4288C14.3126 11.9741 14.0423 12.4747 13.6502 12.8712L11.7982 14.7233C13.8742 18.3743 16.8972 21.3973 20.5482 23.4733L22.4002 21.6212C22.7968 21.2291 23.2973 20.9589 23.8427 20.8426C24.3881 20.7263 24.9554 20.7688 25.4773 20.965C26.8004 21.4587 28.1752 21.8011 29.5753 21.9858C30.2837 22.0857 30.9306 22.4426 31.3931 22.9884C31.8556 23.5342 32.1013 24.231 32.0836 24.9462Z" fill="#F3BB44" stroke="#F3BB44" stroke-width="2" stroke-linecap="round" stroke-linejoin="round"/>
</svg>
