<svg width="35" height="36" viewBox="0 0 35 36" fill="none" xmlns="http://www.w3.org/2000/svg">
<g clip-path="url(#clip0)">
<path d="M30.625 14.855C30.625 25.0633 17.5 33.8133 17.5 33.8133C17.5 33.8133 4.375 25.0633 4.375 14.855C4.375 11.374 5.75781 8.03562 8.21922 5.5742C10.6806 3.11279 14.019 1.72998 17.5 1.72998C20.981 1.72998 24.3194 3.11279 26.7808 5.5742C29.2422 8.03562 30.625 11.374 30.625 14.855Z" fill="#F3BB44" stroke="#F3BB44" stroke-width="2" stroke-linecap="round" stroke-linejoin="round"/>
<path d="M17.4997 22.1463C21.5268 22.1463 24.7913 18.8817 24.7913 14.8547C24.7913 10.8276 21.5268 7.56299 17.4997 7.56299C13.4726 7.56299 10.208 10.8276 10.208 14.8547C10.208 18.8817 13.4726 22.1463 17.4997 22.1463Z" fill="#F6F6F6" stroke="#F3BB44" stroke-width="2" stroke-linecap="round" stroke-linejoin="round"/>
</g>
<defs>
<clipPath id="clip0">
<rect y="0.271484" width="35" height="35" rx="10" fill="white"/>
</clipPath>
</defs>
</svg>
